HIERARCHY
ROOT Hip
{
	OFFSET	0.0000	0.0000	0.0000
	CHANNELS 6 Xposition Yposition Zposition Xrotation Yrotation Zrotation
	JOINT LowerSpine
	{
		OFFSET	0.0000	10.1932	-5.5160
		CHANNELS 3 Xrotation Yrotation Zrotation
		JOINT MiddleSpine
		{
			OFFSET	0.0000	9.3020	0.4860
			CHANNELS 3 Xrotation Yrotation Zrotation
			JOINT Chest
			{
				OFFSET	0.0000	11.5102	-2.5620
				CHANNELS 3 Xrotation Yrotation Zrotation
				JOINT Neck
				{
					OFFSET	0.0000	25.9379	-0.5394
					CHANNELS 3 Xrotation Yrotation Zrotation
					JOINT Head
					{
						OFFSET	-0.0001	14.6474	3.9841
						CHANNELS 3 Xrotation Yrotation Zrotation
						End Site
						{
							OFFSET	0.0001	20.4661	0.6110
						}
					}
				}
				JOINT LClavicle
				{
					OFFSET	2.6187	25.0313	8.5759
					CHANNELS 3 Xrotation Yrotation Zrotation
					JOINT LShoulder
					{
						OFFSET	15.2984	3.5904	-5.8096
						CHANNELS 3 Xrotation Yrotation Zrotation
						JOINT LForearm
						{
							OFFSET	32.4969	-0.1152	-0.2816
							CHANNELS 3 Xrotation Yrotation Zrotation
							JOINT LHand
							{
								OFFSET	27.1093	0.0786	-0.1624
								CHANNELS 3 Xrotation Yrotation Zrotation
								JOINT LFinger1
								{
									OFFSET	10.5068	0.9189	2.9182
									CHANNELS 3 Xrotation Yrotation Zrotation
									JOINT LFinger11
									{
										OFFSET	3.9301	-0.9583	0.6925
										CHANNELS 3 Xrotation Yrotation Zrotation
										JOINT LFinger12
										{
											OFFSET	2.6830	-0.6544	0.4729
											CHANNELS 3 Xrotation Yrotation Zrotation
											End Site
											{
												OFFSET	1.9092	-0.5699	0.3097
											}
										}
									}
								}
								JOINT LFinger2
								{
									OFFSET	10.6636	1.0611	0.2541
									CHANNELS 3 Xrotation Yrotation Zrotation
									JOINT LFinger21
									{
										OFFSET	4.8593	0.0136	-0.0287
										CHANNELS 3 Xrotation Yrotation Zrotation
										JOINT LFinger22
										{
											OFFSET	2.6935	0.0083	-0.0164
											CHANNELS 3 Xrotation Yrotation Zrotation
											End Site
											{
												OFFSET	2.4193	-0.1708	0.0032
											}
										}
									}
								}
								JOINT LFinger3
								{
									OFFSET	10.1060	0.7082	-2.3909
									CHANNELS 3 Xrotation Yrotation Zrotation
									JOINT LFinger31
									{
										OFFSET	4.4093	-0.2232	-0.2761
										CHANNELS 3 Xrotation Yrotation Zrotation
										JOINT LFinger32
										{
											OFFSET	2.5127	-0.1264	-0.1578
											CHANNELS 3 Xrotation Yrotation Zrotation
											End Site
											{
												OFFSET	2.2216	-0.2731	-0.1050
											}
										}
									}
								}
								JOINT LFinger4
								{
									OFFSET	9.3780	-0.7126	-4.1291
									CHANNELS 3 Xrotation Yrotation Zrotation
									JOINT LFinger41
									{
										OFFSET	2.7122	-0.5656	-0.7487
										CHANNELS 3 Xrotation Yrotation Zrotation
										JOINT LFinger42
										{
											OFFSET	1.9889	-0.4142	-0.5494
											CHANNELS 3 Xrotation Yrotation Zrotation
											End Site
											{
												OFFSET	1.7652	-0.4850	-0.4050
											}
										}
									}
								}
								JOINT LFinger0
								{
									OFFSET	2.1735	-1.6451	1.6477
									CHANNELS 3 Xrotation Yrotation Zrotation
									JOINT LFinger01
									{
										OFFSET	4.0467	-1.3289	3.0509
										CHANNELS 3 Xrotation Yrotation Zrotation
										JOINT LFinger02
										{
											OFFSET	2.6647	-0.9535	1.9198
											CHANNELS 3 Xrotation Yrotation Zrotation
											End Site
											{
												OFFSET	1.9595	-0.6745	1.3418
											}
										}
									}
								}
							}
						}
					}
				}
				JOINT RClavicle
				{
					OFFSET	-2.6187	25.0313	8.5759
					CHANNELS 3 Xrotation Yrotation Zrotation
					JOINT RShoulder
					{
						OFFSET	-15.3012	3.5910	-5.8106
						CHANNELS 3 Xrotation Yrotation Zrotation
						JOINT RForearm
						{
							OFFSET	-32.4969	-0.1152	-0.2816
							CHANNELS 3 Xrotation Yrotation Zrotation
							JOINT RHand
							{
								OFFSET	-27.1093	0.0786	-0.1624
								CHANNELS 3 Xrotation Yrotation Zrotation
								JOINT RFinger1
								{
									OFFSET	-10.5069	0.9190	2.9183
									CHANNELS 3 Xrotation Yrotation Zrotation
									JOINT RFinger11
									{
										OFFSET	-3.9301	-0.9583	0.6925
										CHANNELS 3 Xrotation Yrotation Zrotation
										JOINT RFinger12
										{
											OFFSET	-2.6829	-0.6545	0.4729
											CHANNELS 3 Xrotation Yrotation Zrotation
											End Site
											{
												OFFSET	-1.9092	-0.5699	0.3097
											}
										}
									}
								}
								JOINT RFinger2
								{
									OFFSET	-10.6636	1.0612	0.2541
									CHANNELS 3 Xrotation Yrotation Zrotation
									JOINT RFinger21
									{
										OFFSET	-4.8593	0.0136	-0.0287
										CHANNELS 3 Xrotation Yrotation Zrotation
										JOINT RFinger22
										{
											OFFSET	-2.6935	0.0082	-0.0165
											CHANNELS 3 Xrotation Yrotation Zrotation
											End Site
											{
												OFFSET	-2.4193	-0.1708	0.0032
											}
										}
									}
								}
								JOINT RFinger3
								{
									OFFSET	-10.1060	0.7082	-2.3909
									CHANNELS 3 Xrotation Yrotation Zrotation
									JOINT RFinger31
									{
										OFFSET	-4.4093	-0.2232	-0.2761
										CHANNELS 3 Xrotation Yrotation Zrotation
										JOINT RFinger32
										{
											OFFSET	-2.5127	-0.1264	-0.1578
											CHANNELS 3 Xrotation Yrotation Zrotation
											End Site
											{
												OFFSET	-2.2216	-0.2732	-0.1050
											}
										}
									}
								}
								JOINT RFinger4
								{
									OFFSET	-9.3780	-0.7126	-4.1291
									CHANNELS 3 Xrotation Yrotation Zrotation
									JOINT RFinger41
									{
										OFFSET	-2.7122	-0.5656	-0.7487
										CHANNELS 3 Xrotation Yrotation Zrotation
										JOINT RFinger42
										{
											OFFSET	-1.9888	-0.4141	-0.5494
											CHANNELS 3 Xrotation Yrotation Zrotation
											End Site
											{
												OFFSET	-1.7652	-0.4850	-0.4050
											}
										}
									}
								}
								JOINT RFinger0
								{
									OFFSET	-2.1735	-1.6450	1.6476
									CHANNELS 3 Xrotation Yrotation Zrotation
									JOINT RFinger01
									{
										OFFSET	-4.0466	-1.3291	3.0511
										CHANNELS 3 Xrotation Yrotation Zrotation
										JOINT RFinger02
										{
											OFFSET	-2.6646	-0.9534	1.9198
											CHANNELS 3 Xrotation Yrotation Zrotation
											End Site
											{
												OFFSET	-1.9595	-0.6745	1.3418
											}
										}
									}
								}
							}
						}
					}
				}
			}
		}
	}
	JOINT RThigh
	{
		OFFSET	-10.9042	4.6076	-0.8988
		CHANNELS 3 Xrotation Yrotation Zrotation
		JOINT RShin
		{
			OFFSET	-0.8725	-47.4282	0.0000
			CHANNELS 3 Xrotation Yrotation Zrotation
			JOINT RFoot
			{
				OFFSET	0.0000	-46.5716	0.0000
				CHANNELS 3 Xrotation Yrotation Zrotation
				JOINT RToe
				{
					OFFSET	0.0000	-5.1186	10.7037
					CHANNELS 3 Xrotation Yrotation Zrotation
					End Site
					{
						OFFSET	0.0000	0.0000	7.1807
					}
				}
			}
		}
	}
	JOINT LThigh
	{
		OFFSET	10.9040	4.6079	-0.8988
		CHANNELS 3 Xrotation Yrotation Zrotation
		JOINT LShin
		{
			OFFSET	0.8726	-47.4285	0.0000
			CHANNELS 3 Xrotation Yrotation Zrotation
			JOINT LFoot
			{
				OFFSET	0.0000	-46.5716	0.0000
				CHANNELS 3 Xrotation Yrotation Zrotation
				JOINT LToe
				{
					OFFSET	0.0000	-5.1187	10.7038
					CHANNELS 3 Xrotation Yrotation Zrotation
					End Site
					{
						OFFSET	0.0000	0.0000	7.1807
					}
				}
			}
		}
	}
}
MOTION
Frames:	6
Frame Time: 0.0333333000
	11.1391	96.3413	-87.4140	-13.390750	16.015600	-3.722959	0.000000	0.000000	0.000000	-0.489852	3.217417	-0.437662	-1.550396	10.738050	-1.362988	0.000000	0.000000	0.000000	-2.552556	-2.303641	-1.909501	0.000000	0.000000	-15.745950	7.680232	-20.893740	-61.061720	0.000000	-19.809290	0.000000	0.000000	0.000000	0.000000	0.000000	0.000000	0.000000	0.000000	0.000000	0.000000	0.000000	0.000000	0.000000	0.000000	0.000000	0.000000	0.000000	0.000000	0.000000	0.000000	0.000000	0.000000	0.000000	0.000000	0.000000	0.000000	0.000000	0.000000	0.000000	0.000000	0.000000	0.000000	0.000000	0.000000	0.000000	0.000000	0.000000	0.000000	0.000000	0.000000	0.000000	0.000000	0.000000	0.000000	0.000000	0.000000	0.000000	0.000000	0.000000	0.000000	0.000000	4.143361	-48.632490	33.000500	53.931200	0.000000	88.315530	0.000000	52.083730	3.645538	1.294650	0.000000	0.000000	0.000000	0.000000	0.000000	0.000000	0.000000	0.000000	0.000000	0.000000	0.000000	0.000000	0.000000	0.000000	0.000000	0.000000	0.000000	0.000000	0.000000	0.000000	0.000000	0.000000	0.000000	0.000000	0.000000	0.000000	0.000000	0.000000	0.000000	0.000000	0.000000	0.000000	0.000000	0.000000	0.000000	0.000000	0.000000	0.000000	0.000000	0.000000	0.000000	0.000000	0.000000	0.000000	0.000000	1.659309	-0.240573	4.691749	26.910880	0.000002	-0.000001	-1.252256	-0.694085	-0.333719	-1.486719	0.000000	0.000000	-0.960011	-5.226643	6.748963	29.613540	0.000003	0.000000	-14.023050	-5.528342	-3.531898	0.000000	0.000000	0.000000
	10.9391	96.7722	-87.8761	-13.062430	14.412270	-3.985072	0.000000	0.000000	0.000000	-0.391705	3.312077	-0.314526	-1.245947	11.047800	-0.968939	0.000000	0.000000	0.000000	-2.459508	-1.121933	-1.498628	0.000000	0.000000	-15.587690	9.041055	-22.104240	-60.078020	0.000000	-22.336280	0.000000	0.000000	0.000000	0.000000	0.000000	0.000000	0.000000	0.000000	0.000000	0.000000	0.000000	0.000000	0.000000	0.000000	0.000000	0.000000	0.000000	0.000000	0.000000	0.000000	0.000000	0.000000	0.000000	0.000000	0.000000	0.000000	0.000000	0.000000	0.000000	0.000000	0.000000	0.000000	0.000000	0.000000	0.000000	0.000000	0.000000	0.000000	0.000000	0.000000	0.000000	0.000000	0.000000	0.000000	0.000000	0.000000	0.000000	0.000000	0.000000	0.000000	0.000000	4.824271	-46.174670	31.115110	54.206040	-180.000000	87.198080	-180.000000	51.056300	5.624554	1.010913	0.000000	0.000000	0.000000	0.000000	0.000000	0.000000	0.000000	0.000000	0.000000	0.000000	0.000000	0.000000	0.000000	0.000000	0.000000	0.000000	0.000000	0.000000	0.000000	0.000000	0.000000	0.000000	0.000000	0.000000	0.000000	0.000000	0.000000	0.000000	0.000000	0.000000	0.000000	0.000000	0.000000	0.000000	0.000000	0.000000	0.000000	0.000000	0.000000	0.000000	0.000000	0.000000	0.000000	0.000000	0.000000	1.226124	-0.323628	4.612690	26.382450	0.000002	-0.000001	-0.566129	-0.499552	-0.243421	-0.903125	0.000000	0.000000	-0.184935	-1.869036	7.325027	26.576330	0.000003	0.000000	-12.653680	-4.711767	-2.932789	0.000000	0.000000	0.000000
	10.8681	97.1575	-88.3522	-12.630790	12.687270	-4.118758	0.000000	0.000000	0.000000	-0.288368	3.311283	-0.173714	-0.930394	11.040760	-0.518672	0.000000	0.000000	0.000000	-2.491012	0.941447	-1.600526	0.000000	0.000000	-15.475390	10.886450	-24.256430	-59.033770	0.000000	-24.120010	0.000000	0.000000	0.000000	0.000000	0.000000	0.000000	0.000000	0.000000	0.000000	0.000000	0.000000	0.000000	0.000000	0.000000	0.000000	0.000000	0.000000	0.000000	0.000000	0.000000	0.000000	0.000000	0.000000	0.000000	0.000000	0.000000	0.000000	0.000000	0.000000	0.000000	0.000000	0.000000	0.000000	0.000000	0.000000	0.000000	0.000000	0.000000	0.000000	0.000000	0.000000	0.000000	0.000000	0.000000	0.000000	0.000000	0.000000	0.000000	0.000000	0.000000	0.000000	5.282844	-44.385340	30.634510	54.668430	-180.000000	83.469490	-180.000000	50.424650	5.903059	1.540089	0.000000	0.000000	0.000000	0.000000	0.000000	0.000000	0.000000	0.000000	0.000000	0.000000	0.000000	0.000000	0.000000	0.000000	0.000000	0.000000	0.000000	0.000000	0.000000	0.000000	0.000000	0.000000	0.000000	0.000000	0.000000	0.000000	0.000000	0.000000	0.000000	0.000000	0.000000	0.000000	0.000000	0.000000	0.000000	0.000000	0.000000	0.000000	0.000000	0.000000	0.000000	0.000000	0.000000	0.000000	0.000000	0.679259	-0.350816	4.386633	26.424020	0.000002	-0.000001	-0.676350	0.002106	-0.003820	-0.225000	0.000000	0.000000	0.608492	-0.144311	7.426958	23.807950	0.000002	0.000000	-11.248360	-4.696690	-2.855510	0.000000	0.000000	0.000000
	10.8956	97.5072	-89.0710	-11.922520	10.911480	-4.232920	0.000000	0.000000	0.000000	-0.165832	3.212862	-0.042102	-0.548431	10.709750	-0.104910	0.000000	0.000000	0.000000	-2.706053	3.472924	-1.724638	0.000000	0.000000	-15.465740	11.990500	-25.915040	-58.534020	0.000000	-25.097880	0.000000	0.000000	0.000000	0.000000	0.000000	0.000000	0.000000	0.000000	0.000000	0.000000	0.000000	0.000000	0.000000	0.000000	0.000000	0.000000	0.000000	0.000000	0.000000	0.000000	0.000000	0.000000	0.000000	0.000000	0.000000	0.000000	0.000000	0.000000	0.000000	0.000000	0.000000	0.000000	0.000000	0.000000	0.000000	0.000000	0.000000	0.000000	0.000000	0.000000	0.000000	0.000000	0.000000	0.000000	0.000000	0.000000	0.000000	0.000000	0.000000	0.000000	0.000000	5.627609	-43.541550	30.538110	55.773320	-180.000000	80.222150	-180.000000	50.160790	6.436701	2.837707	0.000000	0.000000	0.000000	0.000000	0.000000	0.000000	0.000000	0.000000	0.000000	0.000000	0.000000	0.000000	0.000000	0.000000	0.000000	0.000000	0.000000	0.000000	0.000000	0.000000	0.000000	0.000000	0.000000	0.000000	0.000000	0.000000	0.000000	0.000000	0.000000	0.000000	0.000000	0.000000	0.000000	0.000000	0.000000	0.000000	0.000000	0.000000	0.000000	0.000000	0.000000	0.000000	0.000000	0.000000	0.000000	-0.324120	-0.302178	4.049314	26.551100	0.000002	-0.000001	-0.637266	0.702829	0.337668	0.000000	0.000000	0.000000	1.095268	0.350634	7.171923	21.181730	0.000002	0.000000	-10.166680	-5.866681	-3.481348	0.000000	0.000000	0.000000
	10.8656	97.7894	-89.9609	-10.961300	9.362270	-4.474907	0.000000	0.000000	0.000000	0.000319	3.064142	0.071321	-0.014126	10.213760	0.239669	0.000000	0.000000	0.000000	-4.370059	5.636082	-2.355202	0.000000	0.000000	-15.391070	12.835810	-27.196160	-57.808350	0.000000	-25.642560	0.000000	0.000000	0.000000	0.000000	0.000000	0.000000	0.000000	0.000000	0.000000	0.000000	0.000000	0.000000	0.000000	0.000000	0.000000	0.000000	0.000000	0.000000	0.000000	0.000000	0.000000	0.000000	0.000000	0.000000	0.000000	0.000000	0.000000	0.000000	0.000000	0.000000	0.000000	0.000000	0.000000	0.000000	0.000000	0.000000	0.000000	0.000000	0.000000	0.000000	0.000000	0.000000	0.000000	0.000000	0.000000	0.000000	0.000000	0.000000	0.000000	0.000000	0.000000	5.872666	-43.265420	30.335860	56.883330	-180.000000	76.837190	-180.000000	48.738590	6.584959	4.741732	0.000000	0.000000	0.000000	0.000000	0.000000	0.000000	0.000000	0.000000	0.000000	0.000000	0.000000	0.000000	0.000000	0.000000	0.000000	0.000000	0.000000	0.000000	0.000000	0.000000	0.000000	0.000000	0.000000	0.000000	0.000000	0.000000	0.000000	0.000000	0.000000	0.000000	0.000000	0.000000	0.000000	0.000000	0.000000	0.000000	0.000000	0.000000	0.000000	0.000000	0.000000	0.000000	0.000000	0.000000	0.000000	-1.332170	-0.333840	3.776693	25.516490	0.000002	-0.000001	-0.633763	1.246717	0.607447	0.000000	0.000000	0.000000	1.083798	0.710677	6.936985	18.835040	0.000002	0.000000	-9.236648	-6.916349	-4.011935	0.000000	0.000000	0.000000
	10.7159	97.9366	-90.6890	-10.078950	8.101354	-4.821179	0.000000	0.000000	0.000000	0.173400	2.936566	0.120417	0.558237	9.790256	0.369402	0.000000	0.000000	0.000000	-4.032646	8.144245	-1.377681	0.000000	0.000000	-15.160900	14.410860	-29.422930	-56.044090	0.000000	-25.102650	0.000000	0.000000	0.000000	0.000000	0.000000	0.000000	0.000000	0.000000	0.000000	0.000000	0.000000	0.000000	0.000000	0.000000	0.000000	0.000000	0.000000	0.000000	0.000000	0.000000	0.000000	0.000000	0.000000	0.000000	0.000000	0.000000	0.000000	0.000000	0.000000	0.000000	0.000000	0.000000	0.000000	0.000000	0.000000	0.000000	0.000000	0.000000	0.000000	0.000000	0.000000	0.000000	0.000000	0.000000	0.000000	0.000000	0.000000	0.000000	0.000000	0.000000	0.000000	5.925034	-43.166390	30.566780	57.231700	-180.000000	73.474110	-180.000000	43.561950	4.288629	7.423937	0.000000	0.000000	0.000000	0.000000	0.000000	0.000000	0.000000	0.000000	0.000000	0.000000	0.000000	0.000000	0.000000	0.000000	0.000000	0.000000	0.000000	0.000000	0.000000	0.000000	0.000000	0.000000	0.000000	0.000000	0.000000	0.000000	0.000000	0.000000	0.000000	0.000000	0.000000	0.000000	0.000000	0.000000	0.000000	0.000000	0.000000	0.000000	0.000000	0.000000	0.000000	0.000000	0.000000	0.000000	0.000000	-1.558668	-0.405064	3.748418	23.111750	0.000002	-0.000001	-0.917413	1.153304	0.565480	0.000000	0.000000	0.000000	0.970484	0.995588	6.990153	16.835010	0.000002	0.000000	-8.329997	-6.823510	-3.897030	0.000000	0.000000	0.000000
